<mxfile host="app.diagrams.net" modified="2021-02-02T15:38:00.269Z" agent="5.0 (X11)" etag="UZMjHZM8ZW7fDZFP2DGq" version="14.2.9" type="github">
  <diagram name="Page-1" id="74e2e168-ea6b-b213-b513-2b3c1d86103e">
    <mxGraphModel dx="1152" dy="1676" grid="1" gridSize="10" guides="1" tooltips="1" connect="1" arrows="1" fold="1" page="1" pageScale="1" pageWidth="1100" pageHeight="850" background="#ffffff" math="0" shadow="0">
      <root>
        <mxCell id="0" />
        <mxCell id="1" parent="0" />
        <mxCell id="i3caQXAs3vsy9sjgmHK5-5" style="edgeStyle=orthogonalEdgeStyle;rounded=0;orthogonalLoop=1;jettySize=auto;html=1;" edge="1" parent="1" source="i3caQXAs3vsy9sjgmHK5-3">
          <mxGeometry relative="1" as="geometry">
            <mxPoint x="300" y="345" as="targetPoint" />
          </mxGeometry>
        </mxCell>
        <mxCell id="i3caQXAs3vsy9sjgmHK5-3" value="&lt;div&gt;AppIntroFragment&lt;/div&gt;&lt;div&gt;&lt;br&gt;&lt;/div&gt;" style="rounded=0;whiteSpace=wrap;html=1;" vertex="1" parent="1">
          <mxGeometry x="60" y="250" width="120" height="190" as="geometry" />
        </mxCell>
        <mxCell id="i3caQXAs3vsy9sjgmHK5-9" style="edgeStyle=orthogonalEdgeStyle;rounded=0;orthogonalLoop=1;jettySize=auto;html=1;" edge="1" parent="1" source="i3caQXAs3vsy9sjgmHK5-8">
          <mxGeometry relative="1" as="geometry">
            <mxPoint x="360" y="520" as="targetPoint" />
          </mxGeometry>
        </mxCell>
        <mxCell id="i3caQXAs3vsy9sjgmHK5-11" style="edgeStyle=orthogonalEdgeStyle;rounded=0;orthogonalLoop=1;jettySize=auto;html=1;" edge="1" parent="1" source="i3caQXAs3vsy9sjgmHK5-8">
          <mxGeometry relative="1" as="geometry">
            <mxPoint x="490" y="345" as="targetPoint" />
          </mxGeometry>
        </mxCell>
        <mxCell id="i3caQXAs3vsy9sjgmHK5-18" style="edgeStyle=orthogonalEdgeStyle;rounded=0;orthogonalLoop=1;jettySize=auto;html=1;" edge="1" parent="1" source="i3caQXAs3vsy9sjgmHK5-8" target="i3caQXAs3vsy9sjgmHK5-21">
          <mxGeometry relative="1" as="geometry">
            <mxPoint x="360" y="110" as="targetPoint" />
            <Array as="points">
              <mxPoint x="340" y="-85" />
            </Array>
          </mxGeometry>
        </mxCell>
        <mxCell id="i3caQXAs3vsy9sjgmHK5-8" value="&lt;div&gt;LoginFragment&lt;br&gt;&lt;/div&gt;&lt;div&gt;&lt;br&gt;&lt;/div&gt;" style="rounded=0;whiteSpace=wrap;html=1;" vertex="1" parent="1">
          <mxGeometry x="300" y="250" width="120" height="190" as="geometry" />
        </mxCell>
        <mxCell id="i3caQXAs3vsy9sjgmHK5-29" style="edgeStyle=orthogonalEdgeStyle;rounded=0;orthogonalLoop=1;jettySize=auto;html=1;" edge="1" parent="1" source="i3caQXAs3vsy9sjgmHK5-10" target="i3caQXAs3vsy9sjgmHK5-21">
          <mxGeometry relative="1" as="geometry">
            <Array as="points">
              <mxPoint x="200" y="615" />
              <mxPoint x="200" y="-1" />
            </Array>
          </mxGeometry>
        </mxCell>
        <mxCell id="i3caQXAs3vsy9sjgmHK5-10" value="&lt;div&gt;RegisterFragment&lt;br&gt;&lt;/div&gt;&lt;div&gt;&lt;br&gt;&lt;/div&gt;" style="rounded=0;whiteSpace=wrap;html=1;" vertex="1" parent="1">
          <mxGeometry x="300" y="520" width="120" height="190" as="geometry" />
        </mxCell>
        <mxCell id="i3caQXAs3vsy9sjgmHK5-13" style="edgeStyle=orthogonalEdgeStyle;rounded=0;orthogonalLoop=1;jettySize=auto;html=1;" edge="1" parent="1" source="i3caQXAs3vsy9sjgmHK5-12">
          <mxGeometry relative="1" as="geometry">
            <mxPoint x="550" y="520" as="targetPoint" />
          </mxGeometry>
        </mxCell>
        <mxCell id="i3caQXAs3vsy9sjgmHK5-16" style="edgeStyle=orthogonalEdgeStyle;rounded=0;orthogonalLoop=1;jettySize=auto;html=1;" edge="1" parent="1" source="i3caQXAs3vsy9sjgmHK5-12">
          <mxGeometry relative="1" as="geometry">
            <mxPoint x="700" y="345" as="targetPoint" />
          </mxGeometry>
        </mxCell>
        <mxCell id="i3caQXAs3vsy9sjgmHK5-19" style="edgeStyle=orthogonalEdgeStyle;rounded=0;orthogonalLoop=1;jettySize=auto;html=1;" edge="1" parent="1" source="i3caQXAs3vsy9sjgmHK5-12" target="i3caQXAs3vsy9sjgmHK5-21">
          <mxGeometry relative="1" as="geometry">
            <mxPoint x="380" y="180" as="targetPoint" />
            <Array as="points">
              <mxPoint x="550" y="160" />
              <mxPoint x="360" y="160" />
            </Array>
          </mxGeometry>
        </mxCell>
        <mxCell id="i3caQXAs3vsy9sjgmHK5-12" value="HouseFragment" style="rounded=0;whiteSpace=wrap;html=1;" vertex="1" parent="1">
          <mxGeometry x="490" y="250" width="120" height="190" as="geometry" />
        </mxCell>
        <mxCell id="i3caQXAs3vsy9sjgmHK5-14" value="&lt;div&gt;AddHouseFragment&lt;/div&gt;&lt;div&gt;&lt;br&gt;&lt;/div&gt;" style="rounded=0;whiteSpace=wrap;html=1;" vertex="1" parent="1">
          <mxGeometry x="490" y="520" width="120" height="190" as="geometry" />
        </mxCell>
        <mxCell id="i3caQXAs3vsy9sjgmHK5-20" style="edgeStyle=orthogonalEdgeStyle;rounded=0;orthogonalLoop=1;jettySize=auto;html=1;" edge="1" parent="1" source="i3caQXAs3vsy9sjgmHK5-17" target="i3caQXAs3vsy9sjgmHK5-21">
          <mxGeometry relative="1" as="geometry">
            <mxPoint x="550" y="160" as="targetPoint" />
            <Array as="points">
              <mxPoint x="760" y="160" />
              <mxPoint x="360" y="160" />
            </Array>
          </mxGeometry>
        </mxCell>
        <mxCell id="i3caQXAs3vsy9sjgmHK5-22" style="edgeStyle=orthogonalEdgeStyle;rounded=0;orthogonalLoop=1;jettySize=auto;html=1;" edge="1" parent="1" source="i3caQXAs3vsy9sjgmHK5-17">
          <mxGeometry relative="1" as="geometry">
            <mxPoint x="760" y="520" as="targetPoint" />
          </mxGeometry>
        </mxCell>
        <mxCell id="i3caQXAs3vsy9sjgmHK5-24" style="edgeStyle=orthogonalEdgeStyle;rounded=0;orthogonalLoop=1;jettySize=auto;html=1;" edge="1" parent="1" source="i3caQXAs3vsy9sjgmHK5-17">
          <mxGeometry relative="1" as="geometry">
            <mxPoint x="890" y="355" as="targetPoint" />
          </mxGeometry>
        </mxCell>
        <mxCell id="i3caQXAs3vsy9sjgmHK5-17" value="Room Fragment" style="rounded=0;whiteSpace=wrap;html=1;" vertex="1" parent="1">
          <mxGeometry x="700" y="260" width="120" height="190" as="geometry" />
        </mxCell>
        <mxCell id="i3caQXAs3vsy9sjgmHK5-21" value="&lt;div&gt;Settings Fragment&lt;/div&gt;&lt;div&gt;Overlay&lt;/div&gt;&lt;div&gt;&lt;br&gt;&lt;/div&gt;" style="rounded=0;whiteSpace=wrap;html=1;" vertex="1" parent="1">
          <mxGeometry x="890" y="-140" width="120" height="190" as="geometry" />
        </mxCell>
        <mxCell id="i3caQXAs3vsy9sjgmHK5-23" value="AddRoomFragment" style="rounded=0;whiteSpace=wrap;html=1;" vertex="1" parent="1">
          <mxGeometry x="700" y="520" width="120" height="190" as="geometry" />
        </mxCell>
        <mxCell id="i3caQXAs3vsy9sjgmHK5-26" style="edgeStyle=orthogonalEdgeStyle;rounded=0;orthogonalLoop=1;jettySize=auto;html=1;" edge="1" parent="1" source="i3caQXAs3vsy9sjgmHK5-25" target="i3caQXAs3vsy9sjgmHK5-21">
          <mxGeometry relative="1" as="geometry">
            <mxPoint x="760" y="160" as="targetPoint" />
            <Array as="points">
              <mxPoint x="950" y="160" />
              <mxPoint x="360" y="160" />
            </Array>
          </mxGeometry>
        </mxCell>
        <mxCell id="i3caQXAs3vsy9sjgmHK5-27" style="edgeStyle=orthogonalEdgeStyle;rounded=0;orthogonalLoop=1;jettySize=auto;html=1;" edge="1" parent="1" source="i3caQXAs3vsy9sjgmHK5-25">
          <mxGeometry relative="1" as="geometry">
            <mxPoint x="950" y="520" as="targetPoint" />
          </mxGeometry>
        </mxCell>
        <mxCell id="i3caQXAs3vsy9sjgmHK5-25" value="ChoreFragment" style="rounded=0;whiteSpace=wrap;html=1;" vertex="1" parent="1">
          <mxGeometry x="890" y="260" width="120" height="190" as="geometry" />
        </mxCell>
        <mxCell id="i3caQXAs3vsy9sjgmHK5-28" value="&amp;nbsp;Add ChoreFragment" style="rounded=0;whiteSpace=wrap;html=1;" vertex="1" parent="1">
          <mxGeometry x="890" y="520" width="120" height="190" as="geometry" />
        </mxCell>
      </root>
    </mxGraphModel>
  </diagram>
</mxfile>
